<svg width="22" height="26" viewBox="0 0 225 268" fill="none" xmlns="http://www.w3.org/2000/svg">
<g filter="url(#filter0_d_0_1)">
<rect x="4" y="150" width="50" height="110" fill="#42C262"/>
<rect x="4.5" y="150.5" width="49" height="109" stroke="black"/>
</g>
<g filter="url(#filter1_d_0_1)">
<rect x="59" y="100" width="50" height="160" fill="#42C262"/>
<rect x="59.5" y="100.5" width="49" height="159" stroke="black"/>
</g>
<g filter="url(#filter2_d_0_1)">
<rect x="114" y="50" width="50" height="210" fill="#42C262"/>
<rect x="114.5" y="50.5" width="49" height="209" stroke="black"/>
</g>
<g filter="url(#filter3_d_0_1)">
<rect x="169" width="50" height="260" fill="#42C262"/>
<rect x="169.5" y="0.5" width="49" height="259" stroke="black"/>
</g>
<line x1="6.47323" y1="256.708" x2="72.4732" y2="178.708" stroke="white" stroke-width="4"/>
<line x1="70.0366" y1="178.29" x2="136.037" y2="218.29" stroke="white" stroke-width="4"/>
<path d="M220.97 99.6524C220.778 98.5647 219.74 97.8385 218.652 98.0304L200.926 101.159C199.839 101.351 199.112 102.388 199.304 103.476C199.496 104.563 200.534 105.29 201.621 105.098L217.378 102.317L220.159 118.074C220.351 119.161 221.388 119.888 222.476 119.696C223.563 119.504 224.29 118.466 224.098 117.379L220.97 99.6524ZM135 220L136.638 221.147L220.638 101.147L219 100L217.362 98.8531L133.362 218.853L135 220Z" fill="white"/>
<defs>
<filter id="filter0_d_0_1" x="0" y="150" width="58" height="118" filterUnits="userSpaceOnUse" color-interpolation-filters="sRGB">
<feFlood flood-opacity="0" result="BackgroundImageFix"/>
<feColorMatrix in="SourceAlpha" type="matrix" values="0 0 0 0 0 0 0 0 0 0 0 0 0 0 0 0 0 0 127 0" result="hardAlpha"/>
<feOffset dy="4"/>
<feGaussianBlur stdDeviation="2"/>
<feComposite in2="hardAlpha" operator="out"/>
<feColorMatrix type="matrix" values="0 0 0 0 0 0 0 0 0 0 0 0 0 0 0 0 0 0 0.25 0"/>
<feBlend mode="normal" in2="BackgroundImageFix" result="effect1_dropShadow_0_1"/>
<feBlend mode="normal" in="SourceGraphic" in2="effect1_dropShadow_0_1" result="shape"/>
</filter>
<filter id="filter1_d_0_1" x="55" y="100" width="58" height="168" filterUnits="userSpaceOnUse" color-interpolation-filters="sRGB">
<feFlood flood-opacity="0" result="BackgroundImageFix"/>
<feColorMatrix in="SourceAlpha" type="matrix" values="0 0 0 0 0 0 0 0 0 0 0 0 0 0 0 0 0 0 127 0" result="hardAlpha"/>
<feOffset dy="4"/>
<feGaussianBlur stdDeviation="2"/>
<feComposite in2="hardAlpha" operator="out"/>
<feColorMatrix type="matrix" values="0 0 0 0 0 0 0 0 0 0 0 0 0 0 0 0 0 0 0.25 0"/>
<feBlend mode="normal" in2="BackgroundImageFix" result="effect1_dropShadow_0_1"/>
<feBlend mode="normal" in="SourceGraphic" in2="effect1_dropShadow_0_1" result="shape"/>
</filter>
<filter id="filter2_d_0_1" x="110" y="50" width="58" height="218" filterUnits="userSpaceOnUse" color-interpolation-filters="sRGB">
<feFlood flood-opacity="0" result="BackgroundImageFix"/>
<feColorMatrix in="SourceAlpha" type="matrix" values="0 0 0 0 0 0 0 0 0 0 0 0 0 0 0 0 0 0 127 0" result="hardAlpha"/>
<feOffset dy="4"/>
<feGaussianBlur stdDeviation="2"/>
<feComposite in2="hardAlpha" operator="out"/>
<feColorMatrix type="matrix" values="0 0 0 0 0 0 0 0 0 0 0 0 0 0 0 0 0 0 0.25 0"/>
<feBlend mode="normal" in2="BackgroundImageFix" result="effect1_dropShadow_0_1"/>
<feBlend mode="normal" in="SourceGraphic" in2="effect1_dropShadow_0_1" result="shape"/>
</filter>
<filter id="filter3_d_0_1" x="165" y="0" width="58" height="268" filterUnits="userSpaceOnUse" color-interpolation-filters="sRGB">
<feFlood flood-opacity="0" result="BackgroundImageFix"/>
<feColorMatrix in="SourceAlpha" type="matrix" values="0 0 0 0 0 0 0 0 0 0 0 0 0 0 0 0 0 0 127 0" result="hardAlpha"/>
<feOffset dy="4"/>
<feGaussianBlur stdDeviation="2"/>
<feComposite in2="hardAlpha" operator="out"/>
<feColorMatrix type="matrix" values="0 0 0 0 0 0 0 0 0 0 0 0 0 0 0 0 0 0 0.25 0"/>
<feBlend mode="normal" in2="BackgroundImageFix" result="effect1_dropShadow_0_1"/>
<feBlend mode="normal" in="SourceGraphic" in2="effect1_dropShadow_0_1" result="shape"/>
</filter>
</defs>
</svg>
